Coordinates
version=1
nRows=19
nColumns=36
inDegrees=yes

Units are S.I. units (second, meters, Newtons, ...)
If the header above contains a line with 'inDegrees', this indicates whether rotational values are in degrees (yes) or radians (no).

endheader
time	pelvis_tilt	pelvis_list	pelvis_rotation	pelvis_tx	pelvis_ty	pelvis_tz	hip_flexion_r	hip_adduction_r	hip_rotation_r	knee_angle_r	knee_angle_r_beta	ankle_angle_r	subtalar_angle_r	mtp_angle_r	hip_flexion_l	hip_adduction_l	hip_rotation_l	knee_angle_l	knee_angle_l_beta	ankle_angle_l	subtalar_angle_l	mtp_angle_l	lumbar_extension	lumbar_bending	lumbar_rotation	arm_flex_r	arm_add_r	arm_rot_r	elbow_flex_r	pro_sup_r	arm_flex_l	arm_add_l	arm_rot_l	elbow_flex_l	pro_sup_l
     45.45000000	      2.67327516	     -4.26694482	     -7.18665107	      0.53238479	      0.91775394	      0.72328699	     31.60794252	      4.71415023	     -0.84349744	     21.18905476	      0.36981877	      7.36433372	     -9.42799246	     -7.49999987	    -12.12891902	     -1.82931635	     -4.20947642	     16.68242155	      0.29116318	     30.64114125	     -4.42014189	     -7.49999987	    -15.35037018	      2.14232012	     -4.07587292	     -2.88138920	     -9.86307312	     -9.15110844	     14.14503195	    103.88460573	     21.71835169	    -12.52320428	     21.15110134	     25.21043816	    103.44646459
     45.46666670	      2.14524283	     -4.14337748	     -6.49497523	      0.53704528	      0.91778889	      0.72453697	     31.47022873	      4.52838753	     -1.75919557	     23.01643155	      0.40171251	      6.05524850	     -9.51621453	     -7.49999987	    -12.11350419	     -1.99443788	     -4.71276952	     17.46804444	      0.30487489	     30.62290766	     -3.71905225	     -7.49999987	    -14.04606670	      2.40268141	     -5.25525354	     -2.68250276	     -9.84077947	     -6.85740917	     13.02550634	    103.96432517	     19.85309509	    -12.46792463	     18.58098882	     25.57030466	    102.77109150
     45.48333330	      1.55336780	     -3.78860530	     -5.82489633	      0.54049947	      0.91734422	      0.72514428	     31.31063283	      4.10824481	     -2.36305814	     24.65705565	      0.43034680	      4.82574854	     -9.30429916	     -7.49999987	    -11.49729370	     -1.99578142	     -5.29808666	     19.02152537	      0.33198825	     30.37134895	     -3.09909005	     -7.49999987	    -12.54035897	      2.35467514	     -5.84789413	     -2.96361338	     -9.67641566	     -5.93299626	     12.69751472	    102.24586975	     18.63221484	    -12.31395571	     18.81068678	     24.84633110	    101.51751187
     45.50000000	      0.95128964	     -3.38613062	     -5.32439009	      0.54337029	      0.91781469	      0.72532978	     31.09574335	      3.69623473	     -2.57763244	     26.05720169	      0.45478396	      3.96828842	     -8.96648027	     -7.49999987	    -10.29733756	     -2.00768193	     -6.15903615	     21.47221232	      0.37476080	     29.72702985	     -2.79849430	     -7.49999987	    -11.17954515	      2.23879287	     -6.11553892	     -3.16514852	     -9.68262671	     -4.15186011	     12.79455153	    101.57206739	     17.28958869	    -12.10308046	     18.81188396	     24.45101645	    101.18967589
     45.51666670	      0.32760178	     -3.07129652	     -5.04008747	      0.54669118	      0.92048770	      0.72590251	     30.83810676	      3.44796805	     -2.50550916	     27.35662830	      0.47746324	      3.80669926	     -8.60057153	     -7.49999987	     -8.53640173	     -2.19573278	     -7.30460605	     24.80275683	      0.43288977	     28.72604279	     -2.62979674	     -7.49999987	     -9.77158554	      2.23501250	     -6.05442231	     -3.26447090	     -9.68914135	     -4.05759840	     12.97601511	    101.67931302	     15.94259346	    -11.71674456	     18.72560550	     23.71720846	    101.38412804
     45.53333330	     -0.10010805	     -2.96865303	     -5.02088406	      0.55037574	      0.92506049	      0.72782843	     30.21448386	      3.52835712	     -2.11197212	     28.41174166	      0.49587844	      4.01808481	     -8.50457563	     -7.49999987	     -6.58409849	     -2.65720936	     -8.58913616	     28.74070595	      0.50161995	     27.26428133	     -2.79999153	     -7.49999987	     -8.67062870	      2.47394506	     -5.54051150	     -3.22772468	     -9.86505125	     -3.72536257	     13.21606104	    101.58717706	     14.68593753	    -11.20911076	     18.72431320	     22.88705896	    101.32988031
     45.55000000	     -0.44163829	     -3.01740652	     -5.12352262	      0.55307750	      0.92926689	      0.73117594	     29.37260780	      3.83327659	     -1.60794186	     29.23603664	      0.51026510	      4.62732116	     -8.67480941	     -7.49999987	     -4.25073646	     -3.39671961	     -9.76369484	     33.36139667	      0.58226621	     25.32168974	     -3.25155614	     -7.49999987	     -7.76676642	      2.85425846	     -4.83143200	     -2.97994644	    -10.11416337	     -3.13777976	     13.37057880	    101.51674407	     13.62220584	    -10.67450321	     18.91195550	     21.75079106	    101.32931733
     45.56666670	     -0.11906167	     -3.13766803	     -5.29456642	      0.55394785	      0.93346444	      0.73509595	     27.66057977	      4.25489031	     -0.97112977	     29.68058026	      0.51802385	      5.80356660	     -8.86889796	     -7.49999987	     -2.25666160	     -4.29466024	    -10.85086052	     38.33330886	      0.66904245	     22.82862668	     -3.71130507	     -7.49999987	     -8.03119727	      3.13464936	     -4.09293443	     -2.46826135	    -10.26536375	     -3.00217210	     13.84537968	    101.25683802	     12.73533026	    -10.48711391	     19.05139057	     21.40942799	    101.11487627
     45.58333330	     -1.00632632	     -3.54549600	     -5.28314149	      0.55505904	      0.93686909	      0.73774644	     27.00611632	      4.96380980	     -0.78954347	     29.58650201	      0.51638187	      7.00213746	     -9.17947091	     -7.49999987	      1.59858110	     -5.56863081	    -10.96106039	     44.00493957	      0.76803108	     20.28310158	     -5.19474632	     -7.49999987	     -6.57136640	      3.98367255	     -3.33694516	     -2.19573714	    -10.67741357	     -1.97760171	     13.67293029	    101.28946981	     12.13427163	     -9.81897311	     19.92060741	     19.37011319	    101.39186424
     45.60000000	     -1.06066004	     -3.95839939	     -5.38669870	      0.55734047	      0.94319457	      0.73990735	     25.12575422	      5.70316582	     -0.48491110	     28.78185092	      0.50233806	      8.29893763	     -9.10618183	     -7.49999987	      4.38445450	     -6.63039021	    -10.90275416	     48.87652922	      0.85305636	     17.78109444	     -6.38189917	     -7.49999987	     -6.29430956	      4.71436452	     -2.46588908	     -1.54325378	    -11.06333499	     -0.45198128	     13.39578406	    101.28249254	     11.65219961	     -9.49905947	     21.07913857	     17.98952255	    101.84089930
     45.61666670	     -1.07070780	     -4.32745347	     -5.58622326	      0.56082711	      0.95157932	      0.74210086	     22.85632639	      6.44270117	      0.00012149	     27.34056669	      0.47718291	      9.20639327	     -9.20341637	     -7.49999987	      6.90401845	     -7.40704172	    -10.53186058	     52.97083994	      0.92451556	     15.81448567	     -7.55454491	     -7.49999987	     -5.99123010	      5.36639025	     -1.62567018	     -0.82512300	    -11.38180035	      1.25440927	     13.14197786	    100.62698589	     11.07349771	     -9.25136941	     22.76541082	     16.63469805	    101.71385966
     45.63333330	     -0.97096952	     -4.55584783	     -5.87056621	      0.56319768	      0.95859280	      0.74431853	     20.34102210	      7.01320631	      0.58563329	     25.69197426	      0.44840954	     10.08288050	     -9.10810898	     -7.49999987	      8.98740812	     -7.82747845	    -10.02707226	     56.19982729	      0.98087203	     14.61947899	     -8.37309896	     -7.49999987	     -5.84562571	      5.87176485	     -0.86948924	     -0.12254794	    -11.60794888	      1.40708694	     13.27088630	    100.55039246	     10.15000201	     -9.14147174	     23.00037234	     16.13150851	    101.69694349
     45.65000000	     -0.93310123	     -4.70948147	     -5.97829974	      0.56179649	      0.96152309	      0.74600152	     17.87303509	      7.37583095	      0.96822646	     23.90569523	      0.41723309	     10.41201349	     -9.16734498	     -7.49999987	     11.02591033	     -7.92732464	     -9.14592151	     58.80225939	      1.02629303	     13.76944558	     -9.66338559	     -7.49999987	     -5.48409022	      6.28615603	     -0.42466017	      1.10632012	    -11.93531238	      4.23314741	     12.34961944	    100.64680197	      9.62152846	     -8.99907179	     25.22822985	     14.49371806	    102.25761433
     45.66666670	     -0.87264757	     -4.63907269	     -6.16667513	      0.55614644	      0.95976517	      0.74766278	     15.68880114	      7.49864670	      1.46565130	     22.50402112	      0.39276926	     10.81438995	     -9.33495232	     -7.49999987	     13.08372394	     -7.78231541	     -8.51575167	     60.96908993	      1.06411136	     13.53346553	    -10.73257316	     -7.49999987	     -5.50383795	      6.38132851	      0.14939153	      2.24557134	    -12.07451345	      5.02350327	     12.48156158	    100.20044709	      8.93967132	     -9.02378562	     25.70566588	     13.92341640	    102.03318507
     45.68333330	     -0.89665617	     -4.38992970	     -6.37000254	      0.54917612	      0.95453918	      0.74904567	     13.84883769	      7.37304399	      1.79275786	     21.36827615	      0.37294677	     11.48291482	     -9.14388851	     -7.49999987	     15.57431621	     -7.46527173	     -8.07468534	     62.64200457	      1.09330923	     13.81693427	    -11.32317600	     -7.49999987	     -5.72972518	      6.18446523	      1.01603598	      3.37298836	    -12.18174429	      5.17937104	     13.23804687	     99.73722413	      8.35283632	     -9.23913242	     25.80915792	     13.99470996	    101.59448264
     45.70000000	     -0.94743854	     -4.02782465	     -6.50654114	      0.54399350	      0.94755358	      0.75087360	     12.29730500	      7.06539038	      1.88564615	     20.50927955	      0.35795446	     12.14422860	     -9.06771185	     -7.49999987	     18.45429653	     -7.03105939	     -7.72997482	     63.70289983	      1.11182535	     14.06492785	    -11.68424442	     -7.49999987	     -6.16561061	      5.78568934	      1.86417300	      4.75767490	    -12.25342724	      5.40889181	     14.22560711	     99.32688862	      7.93891761	     -9.57480524	     25.87527781	     14.04566810	    101.21540673
     45.71666670	     -1.00734710	     -3.62527617	     -6.64276083	      0.54092040	      0.94127899	      0.75424543	     10.99883469	      6.70237920	      1.92157137	     19.95430227	      0.34826827	     12.91695943	     -9.09333206	     -7.49999987	     21.38557400	     -6.58710779	     -7.50967586	     63.97359735	      1.11654991	     14.21542909	    -11.68605129	     -7.49999987	     -6.71244789	      5.21551091	      2.73568797	      6.27034055	    -12.26492390	      5.69447026	     15.59648331	     98.78484707	      7.58368157	    -10.04967140	     25.88592904	     14.31004811	    100.67139514
     45.73333330	     -0.70359059	     -3.21804394	     -6.71275083	      0.53699095	      0.94016758	      0.75793046	      9.48626283	      6.23118441	      1.71958401	     19.65191807	      0.34299067	     14.05771153	     -8.54708800	     -7.49999987	     23.63566002	     -6.10833126	     -7.43541859	     63.08736540	      1.10108224	     14.64749229	    -11.09679781	     -7.49999987	     -7.72740856	      4.53859630	      3.22773196	      8.10083506	    -12.33384471	      7.01413155	     17.37526861	     98.19216946	      7.49156186	    -10.47916309	     25.88928456	     13.92381841	    100.15398745
     45.75000000	     -0.76004237	     -2.81954128	     -6.84468750	      0.53074186	      0.94289014	      0.76028524	      8.46172995	      5.82009128	      1.56527491	     19.50214825	      0.34037670	     15.34488472	     -7.68533917	     -7.49999987	     25.99106388	     -5.62969455	     -7.37888813	     61.01718586	      1.06495079	     15.09185220	    -10.24387961	     -7.49999987	     -8.35930389	      3.91056271	      3.43267974	     10.46930869	    -12.64582371	     12.49453818	     18.49811528	     95.27815239	      6.86595041	    -11.07965213	     24.01469067	     14.87808000	    101.24070927
